<svg width="50" height="40" viewBox="0 0 50 40" fill="none" xmlns="http://www.w3.org/2000/svg">
<g clip-path="url(#clip0_2716_145)">
<path d="M38.2787 9.70857L36.61 3.59465L30.9396 5.14228L28.5775 0.374268L9.73645 9.70857H5V39.6257H42.4275V31.562H45V17.6358H42.4275V9.70857H38.2787ZM34.6421 7.03999L35.3705 9.70862H33.2019H30.0709H24.8644L29.4507 8.45686L32.2088 7.70409L34.6421 7.03999ZM39.6218 36.8201H7.80561V21.5397V16.2119V15.7897V12.9104V12.5142H9.25714H10.3933H14.5849H31.4609H34.592H36.1363H37.5903H39.0445H39.6218V14.6297V17.6358H38.9882H37.5341H33.9095H27.5896H25.3114V18.7645V21.8955V22.2569V23.711V25.1651V31.5619H39.6219V36.82H39.6218V36.8201ZM42.1944 28.7564H41.0246H39.6218H28.117V24.3995V22.9454V21.4912V20.5056V20.4414H28.2465H31.9634H37.2911H39.6219H41.0247H41.2081H42.1944V28.7564ZM27.309 4.13374L28.1816 5.89501L18.3226 8.58583L27.309 4.13374Z" fill="white"/>
<path d="M30.3391 23.2936V23.7931V26.0407H33.0863V23.2936H32.169H30.3391Z" fill="white"/>
</g>
<defs>
<clipPath id="clip0_2716_145">
<rect width="40" height="40" fill="white" transform="translate(5)"/>
</clipPath>
</defs>
</svg>
